<svg width="105" height="105" viewBox="0 0 105 105" fill="none" xmlns="http://www.w3.org/2000/svg">
<g filter="url(#filter0_i)">
<rect x="52.5001" y="0.88118" width="73" height="73" transform="rotate(45 52.5001 0.88118)" fill="white"/>
</g>
<rect x="52.5001" y="1.58829" width="72" height="72" transform="rotate(45 52.5001 1.58829)" stroke="#222222"/>
<path d="M41.168 73V39.16H48.512L59.312 58.552L70.112 39.16H77.264V73H69.296V54.616L61.568 68.008H56.768L49.136 54.808V73H41.168Z" fill="#222222"/>
<path d="M41.168 73H40.168V74H41.168V73ZM41.168 39.16V38.16H40.168V39.16H41.168ZM48.512 39.16L49.3857 38.6734L49.0997 38.16H48.512V39.16ZM59.312 58.552L58.4384 59.0386L59.312 60.6073L60.1857 59.0386L59.312 58.552ZM70.112 39.16V38.16H69.5243L69.2384 38.6734L70.112 39.16ZM77.264 39.16H78.264V38.16H77.264V39.16ZM77.264 73V74H78.264V73H77.264ZM69.296 73H68.296V74H69.296V73ZM69.296 54.616H70.296V50.8823L68.4299 54.1162L69.296 54.616ZM61.568 68.008V69.008H62.1455L62.4341 68.5078L61.568 68.008ZM56.768 68.008L55.9023 68.5086L56.1911 69.008H56.768V68.008ZM49.136 54.808L50.0017 54.3075L48.136 51.0806V54.808H49.136ZM49.136 73V74H50.136V73H49.136ZM42.168 73V39.16H40.168V73H42.168ZM41.168 40.16H48.512V38.16H41.168V40.16ZM47.6384 39.6466L58.4384 59.0386L60.1857 58.0654L49.3857 38.6734L47.6384 39.6466ZM60.1857 59.0386L70.9857 39.6466L69.2384 38.6734L58.4384 58.0654L60.1857 59.0386ZM70.112 40.16H77.264V38.16H70.112V40.16ZM76.264 39.16V73H78.264V39.16H76.264ZM77.264 72H69.296V74H77.264V72ZM70.296 73V54.616H68.296V73H70.296ZM68.4299 54.1162L60.7019 67.5082L62.4341 68.5078L70.1621 55.1158L68.4299 54.1162ZM61.568 67.008H56.768V69.008H61.568V67.008ZM57.6337 67.5075L50.0017 54.3075L48.2703 55.3086L55.9023 68.5086L57.6337 67.5075ZM48.136 54.808V73H50.136V54.808H48.136ZM49.136 72H41.168V74H49.136V72Z" fill="url(#paint0_linear)"/>
<path d="M31.072 66V32.16H39.904V58.656H54.976V66H31.072Z" fill="#222222"/>
<path d="M31.072 66H30.072V67H31.072V66ZM31.072 32.16V31.16H30.072V32.16H31.072ZM39.904 32.16H40.904V31.16H39.904V32.16ZM39.904 58.656H38.904V59.656H39.904V58.656ZM54.976 58.656H55.976V57.656H54.976V58.656ZM54.976 66V67H55.976V66H54.976ZM32.072 66V32.16H30.072V66H32.072ZM31.072 33.16H39.904V31.16H31.072V33.16ZM38.904 32.16V58.656H40.904V32.16H38.904ZM39.904 59.656H54.976V57.656H39.904V59.656ZM53.976 58.656V66H55.976V58.656H53.976ZM54.976 65H31.072V67H54.976V65Z" fill="url(#paint1_linear)"/>
<rect x="50.1129" y="56.529" width="6.89138" height="12.1412" transform="rotate(-30.1121 50.1129 56.529)" fill="#222222"/>
<defs>
<filter id="filter0_i" x="0.881317" y="0.88118" width="103.238" height="103.238" filterUnits="userSpaceOnUse" color-interpolation-filters="sRGB">
<feFlood flood-opacity="0" result="BackgroundImageFix"/>
<feBlend mode="normal" in="SourceGraphic" in2="BackgroundImageFix" result="shape"/>
<feColorMatrix in="SourceAlpha" type="matrix" values="0 0 0 0 0 0 0 0 0 0 0 0 0 0 0 0 0 0 127 0" result="hardAlpha"/>
<feOffset/>
<feGaussianBlur stdDeviation="4.5"/>
<feComposite in2="hardAlpha" operator="arithmetic" k2="-1" k3="1"/>
<feColorMatrix type="matrix" values="0 0 0 0 0 0 0 0 0 0 0 0 0 0 0 0 0 0 1 0"/>
<feBlend mode="normal" in2="shape" result="effect1_innerShadow"/>
</filter>
<linearGradient id="paint0_linear" x1="56" y1="45" x2="79" y2="72" gradientUnits="userSpaceOnUse">
<stop offset="0.012983" stop-color="white"/>
<stop offset="1" stop-color="white" stop-opacity="0"/>
</linearGradient>
<linearGradient id="paint1_linear" x1="60.5" y1="40.5" x2="44.5" y2="21" gradientUnits="userSpaceOnUse">
<stop stop-color="white"/>
<stop offset="1" stop-color="white" stop-opacity="0"/>
</linearGradient>
</defs>
</svg>
